<svg width="24" height="24" viewBox="0 0 24 24" fill="none" xmlns="http://www.w3.org/2000/svg">
<path d="M12 24C18.6274 24 24 18.6274 24 12C24 5.37258 18.6274 0 12 0C5.37258 0 0 5.37258 0 12C0 18.6274 5.37258 24 12 24Z" fill="#FFC02D"/>
<path d="M17.3251 17.3911H6.6741C6.50103 17.3919 6.33084 17.3472 6.18032 17.2618C6.02981 17.1763 5.90429 17.0533 5.81619 16.9043C5.72652 16.7561 5.67716 16.5868 5.67312 16.4136C5.66909 16.2404 5.71045 16.0692 5.79312 15.917L11.1192 6.02494C11.2037 5.86492 11.3305 5.73147 11.4859 5.63871C11.6412 5.54594 11.8192 5.49754 12.0001 5.49906C12.1811 5.49754 12.3591 5.54594 12.5144 5.63871C12.6698 5.73147 12.7966 5.86492 12.8811 6.02494L18.2072 15.917C18.2898 16.0692 18.3312 16.2404 18.3272 16.4136C18.3231 16.5868 18.2738 16.7561 18.1841 16.9043C18.0959 17.0534 17.9703 17.1768 17.8196 17.2622C17.6689 17.3477 17.4983 17.392 17.3251 17.3911ZM11.9992 14.3911C11.734 14.3911 11.4796 14.4966 11.292 14.6841C11.1045 14.8717 10.9992 15.1259 10.9992 15.3911C10.9992 15.6564 11.1045 15.9106 11.292 16.0982C11.4796 16.2857 11.734 16.3911 11.9992 16.3911C12.2644 16.3911 12.5187 16.2857 12.7062 16.0982C12.8937 15.9106 12.9992 15.6564 12.9992 15.3911C12.9992 15.1261 12.8939 14.8721 12.7066 14.6846C12.5192 14.4971 12.2652 14.3914 12.0001 14.3911H11.9992ZM11.9992 8.39115C11.8005 8.39168 11.6101 8.4708 11.4698 8.61136C11.3294 8.75193 11.2504 8.94249 11.2501 9.14115V12.6411C11.2504 12.8397 11.3295 13.03 11.4699 13.1704C11.6103 13.3109 11.8006 13.3899 11.9992 13.3902C12.1978 13.3899 12.3883 13.3108 12.5288 13.1704C12.6694 13.0301 12.7486 12.8398 12.7492 12.6411V9.14115C12.7489 8.94249 12.6699 8.75193 12.5296 8.61136C12.3892 8.4708 12.1988 8.39168 12.0001 8.39115H11.9992Z" fill="white"/>
</svg>
